<?xml version="1.0" encoding="UTF-8" standalone="no"?>
<svg
   width="142.17799"
   height="142.17799"
   viewBox="0 0 142.178 142.178"
   version="1.1"
   id="svg8"
   sodipodi:docname="Icon (docs3).svg"
   inkscape:version="1.3.2 (1:1.3.2+202311252150+091e20ef0f)"
   inkscape:export-filename="Icon (docs).png"
   inkscape:export-xdpi="1000"
   inkscape:export-ydpi="1000"
   xmlns:inkscape="http://www.inkscape.org/namespaces/inkscape"
   xmlns:sodipodi="http://sodipodi.sourceforge.net/DTD/sodipodi-0.dtd"
   xmlns="http://www.w3.org/2000/svg"
   xmlns:svg="http://www.w3.org/2000/svg"
   xmlns:rdf="http://www.w3.org/1999/02/22-rdf-syntax-ns#"
   xmlns:cc="http://creativecommons.org/ns#"
   xmlns:dc="http://purl.org/dc/elements/1.1/">
  <sodipodi:namedview
     id="namedview8"
     pagecolor="#ffffff"
     bordercolor="#000000"
     borderopacity="0.25"
     inkscape:showpageshadow="2"
     inkscape:pageopacity="0.0"
     inkscape:pagecheckerboard="0"
     inkscape:deskcolor="#d1d1d1"
     inkscape:zoom="1.4483682"
     inkscape:cx="-5.8686735"
     inkscape:cy="83.887509"
     inkscape:window-width="1920"
     inkscape:window-height="1008"
     inkscape:window-x="1920"
     inkscape:window-y="0"
     inkscape:window-maximized="1"
     inkscape:current-layer="svg8" />
  <!-- Generator: Sketch 52.6 (67491) - http://www.bohemiancoding.com/sketch -->
  <title
     id="title1">Artboard</title>
  <desc
     id="desc1">Created with Sketch.</desc>
  <defs
     id="defs1">
    <polygon
       id="path-1"
       points="19.605553,21.920085 0,21.920085 0,0 19.605553,0 " />
    <polygon
       id="path-3"
       points="18.923505,23.331064 0,23.331064 0,0 18.923505,0 " />
    <polygon
       id="path-5"
       points="120.62839,142.17824 0,142.17824 0,0 120.62839,0 " />
  </defs>
  <metadata
     id="metadata8">
    <rdf:RDF>
      <cc:Work
         rdf:about="">
        <dc:title>Artboard</dc:title>
      </cc:Work>
    </rdf:RDF>
  </metadata>
  <g
     id="g1"
     transform="translate(10.774802,-1.1936029e-4)">
    <g
       id="g8"
       inkscape:label="Icon">
      <path
         d="M 0,102.43537 V 39.742868 c 0,-2.99984 1.5397467,-5.771676 4.0392373,-7.271706 L 56.274959,1.125022 c 2.499491,-1.50002934 5.578984,-1.50002934 8.078475,0 l 52.235726,31.34614 c 2.49949,1.50003 4.03923,4.271866 4.03923,7.271706 v 62.692502 c 0,2.99984 -1.53974,5.77167 -4.03923,7.2717 l -52.235726,31.34614 c -2.499491,1.50003 -5.578984,1.50003 -8.078475,0 L 4.0392373,109.70707 C 1.5397467,108.20704 0,105.43521 0,102.43537"
         id="path7"
         fill="#f16141"
         mask="url(#mask-6)"
         style="display:inline"
         inkscape:label="Outer" />
      <path
         d="m 41.201687,103.60515 c 1.483576,-1.26124 2.499784,-2.89992 2.964237,-4.700559 0.193496,-0.750027 0.291679,-1.527371 0.28668,-2.317813 -0.0031,-0.630373 -0.07023,-1.246873 -0.200184,-1.84333 -0.717665,-3.322222 0.387635,-6.825445 2.768166,-9.313295 l 1.118349,-1.168971 c 5.341594,-5.584337 14.524922,-3.375941 16.529991,3.975113 l 0.419891,1.538886 c 0.893997,3.275304 0.16851,6.869864 -2.079076,9.47901 -0.404499,0.46793 -0.763274,0.981999 -1.07219,1.537349 -1.343911,2.41207 -1.53269,5.24395 -0.481739,7.81023 0.59097,1.44531 1.572773,2.69907 2.824355,3.61066 2.225608,1.62023 4.98505,2.07004 7.602395,1.28351 3.13462,-0.94328 5.407965,-3.48473 6.17826,-6.47109 0.415728,-1.61175 0.393587,-3.35224 -0.167413,-5.0422 -0.642303,-1.92768 -1.947159,-3.571027 -3.667529,-4.614375 -0.609259,-0.369083 -1.249708,-0.656346 -1.911139,-0.862262 -3.19163,-0.991552 -5.689467,-3.466491 -6.577235,-6.721263 L 65.265693,88.056202 C 63.260268,80.706528 69.938349,73.727467 77.285012,75.494185 l 1.733572,0.416892 c 3.260963,0.784192 5.789039,3.23126 6.892094,6.422128 0.962142,2.782127 3.297353,4.993926 6.406488,5.612752 4.33527,0.8639 8.778414,-1.767822 10.201634,-6.051187 1.64673,-4.954428 -1.20024,-10.113863 -6.084901,-11.288521 -2.959826,-0.71178 -5.970411,0.208613 -8.093167,2.182997 -2.495603,2.319609 -5.922986,3.292051 -9.163603,2.512751 l -1.73493,-0.41721 C 70.095536,73.118069 67.587577,63.929961 72.92917,58.345624 l 1.256337,-1.312972 c 2.366768,-2.473589 5.776665,-3.52345 9.080186,-2.95452 0.678765,0.116375 1.379869,0.151724 2.091104,0.103121 2.025856,-0.140995 3.978538,-0.998042 5.482178,-2.409676 1.320784,-1.238895 2.188197,-2.76985 2.60464,-4.384361 0.862402,-3.343458 -0.211358,-7.050024 -3.210182,-9.274979 -1.240598,-0.920652 -2.72327,-1.483664 -4.27029,-1.618479 -2.73327,-0.238514 -5.354837,0.771035 -7.250177,2.751785 -1.648965,1.723718 -2.55005,3.977244 -2.537396,6.346543 0.0034,0.628996 0.07059,1.245495 0.200183,1.843332 0.717665,3.322221 -0.387633,6.825443 -2.76781,9.311915 l -1.118705,1.170349 c -5.341237,5.582958 -14.524565,3.374562 -16.52999,-3.975113 l -0.419536,-1.540263 c -0.894352,-3.273927 -0.168866,-6.868486 2.078721,-9.477628 0.404854,-0.469312 0.76363,-0.983384 1.072189,-1.537352 0.388373,-0.695845 0.679569,-1.428236 0.872676,-2.176896 0.464097,-1.799262 0.363216,-3.703641 -0.332059,-5.487391 -0.585885,-1.504125 -1.587796,-2.813979 -2.881877,-3.756277 -2.225607,-1.620233 -4.986052,-2.071743 -7.605109,-1.28416 -4.669674,1.404366 -7.429038,6.360654 -6.149388,11.045077 0.618704,2.270509 2.081511,4.139263 4.119585,5.263405 0.527175,0.290772 1.078137,0.522837 1.643034,0.69529 3.181688,0.968661 5.648997,3.467009 6.532182,6.706035 l 0.471814,1.728549 c 2.006425,7.351379 -4.671656,14.330439 -12.018319,12.563723 L 41.60823,66.26747 c -3.259607,-0.783864 -5.787325,-3.232313 -6.890738,-6.421801 -0.961789,-2.783508 -3.296993,-4.995304 -6.40613,-5.61413 -4.336985,-0.862849 -8.778775,1.769198 -10.201636,6.051185 -1.647084,4.955807 1.200237,10.113863 6.084906,11.288523 2.959825,0.711779 5.970051,-0.207237 8.092803,-2.181621 2.495607,-2.319607 5.921634,-3.292376 9.163607,-2.51275 l 1.734931,0.41721 c 7.346662,1.766718 9.854621,10.954826 4.512027,16.537458 l -1.254977,1.313291 c -2.366414,2.47221 -5.774664,3.526859 -9.075117,2.957203 -0.686903,-0.118332 -1.396503,-0.15426 -2.115587,-0.103152 -2.06946,0.148081 -4.058295,1.044754 -5.571735,2.511138 -3.654663,3.540288 -3.70717,9.356907 -0.183758,12.793036 1.928199,1.87964 4.582797,2.73033 7.33167,2.31075 1.601633,-0.24447 3.123767,-0.94589 4.373191,-2.00866"
         id="path8"
         fill="#ffffff"
         inkscape:label="Inner"
         style="display:inline" />
    </g>
    <g
       id="g5"
       transform="matrix(4.7108561,0,0,4.7108561,23.752364,35.880494)"
       style="fill:none">
      <path
         d="M 4,21.4 V 2.6 C 4,2.26863 4.26863,2 4.6,2 h 11.6515 c 0.1591,0 0.3117,0.06321 0.4242,0.17574 l 3.1486,3.14852 C 19.9368,5.43679 20,5.5894 20,5.74853 V 21.4 C 20,21.7314 19.7314,22 19.4,22 H 4.6 C 4.26863,22 4,21.7314 4,21.4 Z"
         stroke="#000000"
         stroke-width="1.5"
         stroke-linecap="round"
         stroke-linejoin="round"
         id="path1"
         style="fill:#ffffff;fill-opacity:1;stroke:#f16141;stroke-opacity:1;stroke-width:1.13907109;stroke-dasharray:none" />
      <path
         d="m 8,10 h 8"
         stroke="#000000"
         stroke-width="1.5"
         stroke-linecap="round"
         stroke-linejoin="round"
         id="path2"
         style="fill:none;stroke:#f16141;stroke-opacity:1;stroke-width:1.13907109;stroke-dasharray:none" />
      <path
         d="m 8,18 h 8"
         stroke="#000000"
         stroke-width="1.5"
         stroke-linecap="round"
         stroke-linejoin="round"
         id="path3"
         style="fill:none;stroke:#f16141;stroke-opacity:1;stroke-width:1.13907109;stroke-dasharray:none" />
      <path
         d="m 8,14 h 4"
         stroke="#000000"
         stroke-width="1.5"
         stroke-linecap="round"
         stroke-linejoin="round"
         id="path4"
         style="fill:none;stroke:#f16141;stroke-opacity:1;stroke-width:1.13907109;stroke-dasharray:none" />
      <path
         d="M 16,2 V 5.4 C 16,5.73137 16.2686,6 16.6,6 H 20"
         stroke="#000000"
         stroke-width="1.5"
         stroke-linecap="round"
         stroke-linejoin="round"
         id="path5"
         style="fill:none;stroke:#f16141;stroke-opacity:1;stroke-width:1.13907109;stroke-dasharray:none" />
    </g>
  </g>
</svg>
